HIERARCHY
ROOT Hips
{
 OFFSET 0.000000 0.000000 0.000000
 CHANNELS 6 Xposition Yposition Zposition Yrotation Xrotation Zrotation
 JOINT Chest
 {
  OFFSET 0.000000 14.067100 -0.020500
  CHANNELS 3 Yrotation Xrotation Zrotation
  JOINT Chest2
  {
   OFFSET 0.000000 9.717300 0.041800
   CHANNELS 3 Yrotation Xrotation Zrotation
   JOINT Chest3
   {
    OFFSET 0.000000 9.672600 0.000000
    CHANNELS 3 Yrotation Xrotation Zrotation
    JOINT Chest4
    {
     OFFSET 0.000000 9.662700 0.000000
     CHANNELS 3 Yrotation Xrotation Zrotation
     JOINT Neck
     {
      OFFSET 0.000000 14.815200 0.000000
      CHANNELS 3 Yrotation Xrotation Zrotation
      JOINT Head
      {
       OFFSET 0.000000 9.056800 0.088400
       CHANNELS 3 Yrotation Xrotation Zrotation
       End Site
       {
        OFFSET 0.000000 17.018200 0.046700
       }
      }
     }
     JOINT RightCollar
     {
      OFFSET -3.269500 9.872600 0.000000
      CHANNELS 3 Yrotation Xrotation Zrotation
      JOINT RightShoulder
      {
       OFFSET -15.850600 0.000000 0.000000
       CHANNELS 3 Yrotation Xrotation Zrotation
       JOINT RightElbow
       {
        OFFSET 0.000000 -29.117400 0.000000
        CHANNELS 3 Yrotation Xrotation Zrotation
        JOINT RightWrist
        {
         OFFSET 0.000000 -23.969300 0.014600
         CHANNELS 3 Yrotation Xrotation Zrotation
         End Site
         {
          OFFSET 0.000000 -18.039300 0.000000
         }
        }
       }
      }
     }
     JOINT LeftCollar
     {
      OFFSET 3.269500 9.872600 0.000000
      CHANNELS 3 Yrotation Xrotation Zrotation
      JOINT LeftShoulder
      {
       OFFSET 15.850600 0.000000 0.000000
       CHANNELS 3 Yrotation Xrotation Zrotation
       JOINT LeftElbow
       {
        OFFSET 0.000000 -29.117400 0.000000
        CHANNELS 3 Yrotation Xrotation Zrotation
        JOINT LeftWrist
        {
         OFFSET 0.000000 -23.969300 0.014600
         CHANNELS 3 Yrotation Xrotation Zrotation
         End Site
         {
          OFFSET 0.000000 -18.039300 0.000000
         }
        }
       }
      }
     }
    }
   }
  }
 }
 JOINT RightHip
 {
  OFFSET -11.600400 0.101300 0.010200
  CHANNELS 3 Yrotation Xrotation Zrotation
  JOINT RightKnee
  {
   OFFSET 0.000000 -45.913300 -0.001400
   CHANNELS 3 Yrotation Xrotation Zrotation
   JOINT RightAnkle
   {
    OFFSET 0.000000 -46.966900 0.018600
    CHANNELS 3 Yrotation Xrotation Zrotation
    JOINT RightToe
    {
     OFFSET 0.000000 -10.064300 17.850900
     CHANNELS 3 Yrotation Xrotation Zrotation
     End Site
     {
      OFFSET 0.000000 -1.607600 6.976100
     }
    }
    JOINT Prop1
    {
     OFFSET 11.600400 -10.064300 -0.027400
     CHANNELS 3 Yrotation Xrotation Zrotation
     End Site
     {
      OFFSET 0.000000 -186.853100 -0.156400
     }
    }
   }
  }
 }
 JOINT LeftHip
 {
  OFFSET 11.600400 0.101300 0.010200
  CHANNELS 3 Yrotation Xrotation Zrotation
  JOINT LeftKnee
  {
   OFFSET 0.000000 -45.913300 -0.001400
   CHANNELS 3 Yrotation Xrotation Zrotation
   JOINT LeftAnkle
   {
    OFFSET 0.000000 -46.966900 0.018600
    CHANNELS 3 Yrotation Xrotation Zrotation
    JOINT LeftToe
    {
     OFFSET 0.000000 -10.064300 17.850900
     CHANNELS 3 Yrotation Xrotation Zrotation
     End Site
     {
      OFFSET 0.000000 -1.607600 6.976100
     }
    }
   }
  }
 }
}
MOTION
Frames: 16
Frame Time: 0.008333
-270.788119 61.660724 -9.680873 174.282903 -40.150671 2.008466 -2.262738 19.576327 1.330533 -1.382170 11.182891 1.134258 -1.700875 13.982324 1.382328 -1.382159 11.183083 1.133096 0.390283 23.513995 -4.507157 1.842385 8.004858 -8.213011 11.081441 2.156040 -6.080203 0.711760 -23.682191 -13.473345 37.753114 -68.648936 -28.262369 9.808605 11.712207 -33.069183 -3.889105 1.077095 -4.713766 7.712421 -32.432905 -0.394907 -60.110300 -44.910359 41.238389 -5.903279 14.978487 35.290799 17.838881 -43.348597 -25.468682 -105.269804 66.067786 -95.657026 5.670536 -4.587829 0.498422 0.139222 -0.526903 0.070881 180.000000 -0.000000 180.000000 0.952064 -44.668965 4.677679 93.893844 82.144490 92.468320 -5.860488 -8.657646 0.010229 0.209949 0.466993 0.118350
-270.789429 61.660933 -9.680748 174.287399 -40.151087 2.010137 -2.266109 19.577410 1.325900 -1.381100 11.182729 1.132901 -1.700250 13.981006 1.383088 -1.383045 11.181240 1.126779 0.392084 23.515770 -4.499975 1.840775 8.003361 -8.201526 11.079038 2.156185 -6.074519 0.718650 -23.678173 -13.494975 37.717028 -68.648649 -28.223732 9.800933 11.704121 -33.074437 -3.899233 1.082829 -4.717086 7.721089 -32.433221 -0.390027 -60.107574 -44.926190 41.255581 -5.888727 14.973150 35.288395 17.831940 -43.347259 -25.470739 -105.271088 66.068501 -95.658001 5.667955 -4.595243 0.493792 0.142566 -0.522207 0.072575 180.000000 -0.000000 180.000000 0.952974 -44.667821 4.674940 93.879195 82.146121 92.452639 -5.865236 -8.658385 0.011215 0.220777 0.469144 0.119156
-270.790131 61.661751 -9.680695 174.292198 -40.153232 2.009012 -2.270296 19.580528 1.323331 -1.380982 11.181993 1.132837 -1.699100 13.981280 1.379461 -1.389116 11.177583 1.121505 0.396069 23.518500 -4.493328 1.847418 8.012551 -8.179865 11.079853 2.159128 -6.079937 0.722093 -23.676965 -13.516324 37.647713 -68.668386 -28.153372 9.801324 11.703627 -33.075929 -3.896874 1.088059 -4.712771 7.765563 -32.415685 -0.425926 -60.134661 -44.960164 41.302644 -5.936898 14.982024 35.253683 17.813815 -43.347411 -25.468582 -105.268085 66.073545 -95.660264 5.674866 -4.596894 0.492832 0.140235 -0.520997 0.071665 180.000000 -0.000000 180.000000 0.953026 -44.667485 4.677121 93.881064 82.149268 92.455964 -5.874832 -8.653618 0.009836 0.222452 0.466107 0.122300
-270.781961 61.658601 -9.674887 174.249912 -40.128593 1.999560 -2.228432 19.563685 1.354953 -1.379742 11.176620 1.132791 -1.699401 13.979002 1.375912 -1.390651 11.177575 1.118716 0.400294 23.521525 -4.487362 1.854723 8.016859 -8.171922 11.078651 2.165342 -6.094653 0.725594 -23.680588 -13.505552 37.614193 -68.663270 -28.115172 9.795597 11.693099 -33.088762 -3.900097 1.094364 -4.722421 7.773381 -32.418068 -0.410821 -60.134535 -44.971211 41.310175 -5.918391 14.981193 35.254471 17.817918 -43.382125 -25.431030 -105.245439 66.080670 -95.634958 5.707643 -4.609181 0.506084 0.109543 -0.497974 0.051910 180.000000 -0.000000 180.000000 0.952637 -44.693135 4.730356 93.862109 82.142814 92.436510 -5.849974 -8.632370 0.028323 0.186677 0.448240 0.101628
-270.789722 61.659427 -9.673720 174.280727 -40.125735 2.008797 -2.262992 19.562503 1.321158 -1.381791 11.177478 1.127810 -1.700250 13.975812 1.373210 -1.393335 11.173962 1.116687 0.403968 23.524686 -4.482292 1.863784 8.017820 -8.168992 11.083575 2.167342 -6.097931 0.730016 -23.677804 -13.504203 37.589742 -68.658615 -28.092629 9.790426 11.682474 -33.096763 -3.906679 1.105543 -4.730967 7.799512 -32.418228 -0.414620 -60.154705 -44.978335 41.332289 -5.857526 14.989824 35.279289 17.820737 -43.377028 -25.471419 -105.241162 66.085886 -95.626477 5.677691 -4.580713 0.486486 0.139967 -0.522962 0.070957 180.000000 -0.000000 180.000000 0.960199 -44.697457 4.691494 93.859796 82.143733 92.434377 -5.877709 -8.653893 0.014384 0.224118 0.470298 0.122445
-270.789795 61.660795 -9.672069 174.277336 -40.124314 2.007916 -2.261274 19.561376 1.320866 -1.384092 11.176498 1.124457 -1.703184 13.974446 1.368926 -1.388504 11.175501 1.118919 0.400130 23.526227 -4.482343 1.868458 8.022261 -8.160927 11.085266 2.167844 -6.104492 0.730632 -23.674708 -13.500677 37.583395 -68.655271 -28.074310 9.778885 11.676806 -33.112699 -3.915547 1.115221 -4.742000 7.830634 -32.417684 -0.418821 -60.137601 -45.025030 41.335237 -5.874637 14.997676 35.275532 17.819573 -43.379828 -25.468573 -105.241380 66.092966 -95.621322 5.669747 -4.575186 0.482823 0.145741 -0.526872 0.071048 180.000000 -0.000000 180.000000 0.960448 -44.698669 4.697645 93.856078 82.135958 92.427779 -5.877962 -8.654007 0.018226 0.220543 0.469829 0.121343
-270.793095 61.661440 -9.668984 174.291311 -40.116000 2.007290 -2.277050 19.552659 1.304161 -1.386398 11.175192 1.119951 -1.709733 13.971275 1.360178 -1.375094 11.180020 1.129774 0.397739 23.526671 -4.480882 1.871500 8.031389 -8.153899 11.088626 2.167912 -6.104106 0.729741 -23.673357 -13.499322 37.548706 -68.634544 -28.042064 9.775565 11.650625 -33.116564 -3.923741 1.127470 -4.747338 7.866260 -32.415361 -0.427858 -60.121712 -45.067722 41.332830 -5.879290 14.994634 35.279678 17.808038 -43.383418 -25.481833 -105.228272 66.105519 -95.608322 5.666698 -4.577894 0.479087 0.146506 -0.523055 0.072113 180.000000 -0.000000 180.000000 0.965618 -44.705798 4.687126 93.777908 82.131123 92.348669 -5.892978 -8.647274 0.022340 0.218311 0.471020 0.123008
-270.795582 61.664093 -9.667614 174.292786 -40.118070 2.010896 -2.280152 19.552835 1.292215 -1.386774 11.176184 1.124199 -1.713573 13.969089 1.354950 -1.379611 11.178758 1.126791 0.409058 23.530984 -4.474479 1.865362 8.035643 -8.148758 11.093422 2.167645 -6.109586 0.731087 -23.669215 -13.488540 37.536595 -68.627393 -28.030593 9.770806 11.644680 -33.126477 -3.925979 1.140497 -4.754339 7.910163 -32.407551 -0.440067 -60.147593 -45.087197 41.347304 -5.847798 14.989882 35.298540 17.807321 -43.379184 -25.487129 -105.223190 66.110153 -95.602955 5.666679 -4.573293 0.478956 0.143736 -0.526021 0.073512 180.000000 -0.000000 180.000000 0.991862 -44.696873 4.675270 93.694768 82.142190 92.276981 -5.903731 -8.654252 0.018326 0.229214 0.478172 0.130343
-270.797363 61.666342 -9.665243 174.290690 -40.115755 2.012140 -2.277345 19.549771 1.287982 -1.390298 11.174252 1.121603 -1.710687 13.971030 1.359057 -1.389813 11.173621 1.116729 0.410138 23.534908 -4.471950 1.866283 8.042677 -8.144392 11.097348 2.168730 -6.113777 0.727064 -23.662598 -13.475151 37.538017 -68.631380 -28.026810 9.765985 11.638751 -33.151259 -3.935017 1.163011 -4.766920 7.928362 -32.422627 -0.425043 -60.098455 -45.128144 41.322737 -5.852188 14.989089 35.313988 17.806781 -43.381061 -25.488844 -105.212374 66.116037 -95.588244 5.661236 -4.562532 0.474901 0.144489 -0.531396 0.075365 180.000000 -0.000000 180.000000 1.002430 -44.696906 4.670360 93.649765 82.147897 92.236335 -5.894620 -8.651395 0.017751 0.223964 0.477946 0.130673
-270.799214 61.668750 -9.662661 174.290431 -40.112537 2.010905 -2.275958 19.546022 1.285481 -1.389958 11.173059 1.119644 -1.712138 13.969076 1.356677 -1.390830 11.172220 1.114673 0.394737 23.534649 -4.480708 1.876769 8.050902 -8.136473 11.083150 2.172184 -6.132304 0.734169 -23.659879 -13.451437 37.515049 -68.624823 -28.009793 9.762178 11.622869 -33.163419 -3.932666 1.171274 -4.760563 7.943881 -32.416379 -0.433461 -60.057340 -45.166957 41.300456 -5.850663 14.987581 35.335379 17.800520 -43.381853 -25.489723 -105.195544 66.124616 -95.563939 5.651265 -4.553668 0.469063 0.153709 -0.534430 0.075262 180.000000 -0.000000 180.000000 1.004617 -44.699020 4.671232 93.622225 82.152690 92.208561 -5.887071 -8.646145 0.020719 0.224940 0.475361 0.128227
-270.792131 61.670390 -9.658553 174.256020 -40.103624 1.993252 -2.236497 19.539274 1.323413 -1.389792 11.170877 1.115550 -1.713083 13.967190 1.354476 -1.403595 11.161014 1.106217 0.412017 23.548973 -4.470225 1.866454 8.058356 -8.139874 11.090055 2.189115 -6.126379 0.749083 -23.654777 -13.448989 37.485077 -68.615695 -28.002667 9.759309 11.602705 -33.165253 -3.918213 1.194643 -4.753537 7.969852 -32.409007 -0.449223 -60.037677 -45.193596 41.287988 -5.834050 14.978161 35.360744 17.776772 -43.395612 -25.442307 -105.163179 66.142565 -95.532114 5.697311 -4.574009 0.487888 0.104922 -0.508399 0.049310 180.000000 -0.000000 180.000000 1.004701 -44.706120 4.721352 93.591556 82.157671 92.182438 -5.847447 -8.624503 0.037350 0.196549 0.455200 0.108612
-270.792893 61.671667 -9.654274 174.251761 -40.090597 1.986218 -2.232439 19.525890 1.328525 -1.390373 11.168757 1.114978 -1.717171 13.963451 1.351279 -1.401166 11.159810 1.107596 0.412603 23.554651 -4.471966 1.858286 8.064524 -8.146432 11.086665 2.199080 -6.132609 0.755051 -23.654738 -13.440776 37.477439 -68.608947 -28.003028 9.753175 11.591649 -33.168500 -3.918917 1.211501 -4.763687 7.978005 -32.415024 -0.443116 -59.984731 -45.220325 41.254080 -5.821672 14.965250 35.382136 17.772652 -43.409829 -25.435606 -105.136945 66.132782 -95.494327 5.699158 -4.556190 0.470768 0.115167 -0.514607 0.057007 180.000000 -0.000000 180.000000 1.009535 -44.719928 4.727480 93.568221 82.163836 92.162333 -5.826711 -8.620222 0.039345 0.188053 0.454448 0.107315
-270.796371 61.674980 -9.652539 174.250157 -40.088982 1.987834 -2.233241 19.523510 1.325195 -1.397576 11.162141 1.109025 -1.717086 13.958752 1.351181 -1.393653 11.166003 1.110259 0.403962 23.557309 -4.477546 1.835267 8.073895 -8.154020 11.082400 2.205450 -6.138398 0.756236 -23.651501 -13.435192 37.468737 -68.601015 -28.004183 9.744017 11.576132 -33.170379 -3.917394 1.219311 -4.765979 7.993266 -32.409938 -0.456594 -59.946942 -45.241341 41.230999 -5.820461 14.954279 35.395333 17.766605 -43.409206 -25.436706 -105.120598 66.137591 -95.478308 5.700496 -4.549358 0.473096 0.117126 -0.516222 0.054191 180.000000 -0.000000 180.000000 1.016637 -44.719483 4.727206 93.535591 82.175086 92.123367 -5.810900 -8.610735 0.045889 0.179784 0.449201 0.107472
-270.799432 61.679178 -9.651984 174.247318 -40.092630 1.987373 -2.232359 19.525799 1.324662 -1.399415 11.159844 1.109357 -1.715119 13.959145 1.351621 -1.392259 11.167239 1.110211 0.396545 23.554548 -4.480127 1.824854 8.080600 -8.156614 11.080618 2.207633 -6.140184 0.753855 -23.643874 -13.442517 37.447893 -68.603993 -27.991046 9.737091 11.561547 -33.173696 -3.916617 1.221353 -4.767979 7.993711 -32.404195 -0.465981 -59.919640 -45.251456 41.222146 -5.820526 14.948752 35.405337 17.753747 -43.404610 -25.432058 -105.103995 66.146171 -95.464739 5.709201 -4.541093 0.474867 0.111208 -0.521643 0.050097 180.000000 -0.000000 180.000000 1.023069 -44.712101 4.728305 93.507689 82.179310 92.095542 -5.810343 -8.608504 0.049857 0.179760 0.447371 0.106998
-270.802950 61.683308 -9.651614 174.241344 -40.095873 1.989328 -2.237943 19.520241 1.318300 -1.390269 11.167864 1.113391 -1.716309 13.957125 1.351513 -1.394193 11.162617 1.110656 0.390885 23.558203 -4.483247 1.815085 8.084372 -8.159807 11.080513 2.215024 -6.147224 0.748530 -23.638702 -13.442894 37.436297 -68.611826 -27.977049 9.731208 11.553292 -33.177412 -3.914596 1.227243 -4.768990 8.022758 -32.399341 -0.501164 -59.942359 -45.240673 41.232328 -5.818148 14.947300 35.410486 17.744057 -43.399611 -25.427139 -105.081909 66.147093 -95.444229 5.720046 -4.533324 0.473324 0.109064 -0.525158 0.048517 180.000000 -0.000000 180.000000 1.036899 -44.703145 4.726011 93.461452 82.182317 92.053387 -5.816836 -8.609707 0.052937 0.181941 0.448824 0.107217
-270.807122 61.686462 -9.650402 174.237000 -40.093443 1.991263 -2.237806 19.513329 1.313364 -1.390378 11.164521 1.115376 -1.716822 13.954202 1.350466 -1.402871 11.145760 1.108807 0.393817 23.577399 -4.485510 1.811209 8.091655 -8.160746 11.082276 2.240292 -6.151426 0.753620 -23.632553 -13.441810 37.405013 -68.609550 -27.956359 9.729447 11.534753 -33.170195 -3.907754 1.252986 -4.771710 8.032174 -32.397029 -0.504803 -59.909844 -45.243796 41.215846 -5.834775 14.932384 35.409186 17.723915 -43.405487 -25.413401 -105.045188 66.145214 -95.418211 5.718068 -4.524087 0.464217 0.107056 -0.522413 0.056781 180.000000 -0.000000 180.000000 1.047377 -44.703011 4.722359 93.425741 82.181882 92.020486 -5.827721 -8.605065 0.061391 0.176742 0.447189 0.101600
